<svg width="15" height="16" viewBox="0 0 15 16" fill="none" xmlns="http://www.w3.org/2000/svg">
<g clip-path="url(#clip0)">
<path d="M10.5 15.2H4.3C1.9 15.2 0 13.3 0 10.9V4.3C0 1.9 1.9 0 4.3 0H10.5C12.9 0 14.8 1.9 14.8 4.3V10.9C14.8 13.2 12.8 15.2 10.5 15.2ZM10.5 14C11.3 14 12.1 13.7 12.7 13.1C13.3 12.5 13.6 11.7 13.6 10.9V4.3C13.6 3.5 13.3 2.7 12.7 2.1C12.1 1.5 11.3 1.2 10.5 1.2H4.3C3.5 1.2 2.7 1.5 2.1 2.1C1.5 2.7 1.1 3.5 1.1 4.3V10.9C1.1 11.7 1.4 12.5 2 13.1C2.7 13.7 3.5 14 4.3 14H10.5Z" fill="black"/>
<path d="M11.5 7.5C11.5 9.7 9.69999 11.6 7.39999 11.6C5.09999 11.6 3.29999 9.8 3.29999 7.5C3.29999 5.2 5.09999 3.4 7.39999 3.4C9.69999 3.4 11.5 5.3 11.5 7.5ZM7.39999 4.9C5.89999 4.9 4.69999 6.1 4.69999 7.6C4.69999 9.1 5.89999 10.3 7.39999 10.3C8.89999 10.2 9.99999 9 9.99999 7.5C9.99999 6 8.89999 4.9 7.39999 4.9Z" fill="black"/>
<path d="M12.5 3.4C12.5 3.9 12.1 4.4 11.5 4.4C11 4.4 10.5 4 10.5 3.4C10.5 2.9 10.9 2.4 11.5 2.4C12.1 2.4 12.5 2.9 12.5 3.4Z" fill="black"/>
</g>
<defs>
<clipPath id="clip0">
<rect width="14.8" height="15.2" fill="white"/>
</clipPath>
</defs>
</svg>
