<svg width="15" height="15" viewBox="0 0 15 15" fill="none" xmlns="http://www.w3.org/2000/svg">
<path d="M15 9.12109V14.6667H11.785V9.4925C11.785 8.1927 11.32 7.30564 10.1563 7.30564C9.26793 7.30564 8.73927 7.90346 8.5067 8.48174C8.42188 8.68847 8.40005 8.97622 8.40005 9.26561V14.6667H5.18398C5.18398 14.6667 5.2273 5.90331 5.18398 4.99536H8.39974V6.36623C8.39322 6.37649 8.38474 6.38754 8.3786 6.39748H8.39974V6.36623C8.82698 5.70819 9.58999 4.76816 11.2979 4.76816C13.4138 4.76812 15 6.15043 15 9.12109ZM1.81984 0.333305C0.71963 0.333305 0 1.05496 0 2.00396C0 2.93227 0.69881 3.67583 1.77716 3.67583H1.79864C2.92016 3.67583 3.61764 2.93241 3.61764 2.00396C3.59651 1.05496 2.92016 0.333305 1.81984 0.333305ZM0.191006 14.6667H3.40585V4.99536H0.191006V14.6667Z" fill="black"/>
</svg>
