<svg width="17" height="14" viewBox="0 0 17 14" fill="none" xmlns="http://www.w3.org/2000/svg">
<g clip-path="url(#clip0)">
<path d="M16.2 1.6C15.6 1.8 15 2 14.3 2.1C15 1.7 15.5 1 15.8 0.2C15.2 0.6 14.4 0.9 13.7 1C13.1 0.4 12.2 0 11.2 0C9.4 0 7.9 1.5 7.9 3.3C7.9 3.6 7.9 3.8 8 4.1C5.2 3.9 2.8 2.6 1.1 0.6C0.8 1.1 0.7 1.7 0.7 2.3C0.7 3.5 1.3 4.5 2.2 5.1C1.6 5 1.1 4.9 0.7 4.6C0.7 6.2 1.8 7.6 3.4 7.9C3 8 2.7 8.1 2.4 8.1C2.2 8.1 2 8 1.8 8C2.2 9.3 3.5 10.3 4.9 10.3C3.8 11.2 2.3 11.7 0.8 11.7C0.5 11.7 0.3 11.7 0 11.7C1.5 12.6 3.2 13.2 5.1 13.2C11.2 13.2 14.6 8.1 14.6 3.7C14.6 3.6 14.6 3.4 14.6 3.3C15.2 2.8 15.8 2.2 16.2 1.6Z" fill="black"/>
</g>
<defs>
<clipPath id="clip0">
<rect width="16.2" height="13.2" fill="white"/>
</clipPath>
</defs>
</svg>
