<svg width="22" height="16" viewBox="0 0 22 16" fill="none" xmlns="http://www.w3.org/2000/svg">
<g clip-path="url(#clip0)">
<path fill-rule="evenodd" clip-rule="evenodd" d="M20.7 0.9C20.3 0.5 19.9 0.3 18.5 0.2C16.6 0 14.1 0 12.2 0C11.4 0 10.6 0 9.8 0C7.9 0 5.4 0 3.5 0.2C2 0.3 1.7 0.6 1.3 0.9C0.2 1.8 0 4.4 0 6.9C0 7.4 0 7.8 0 8.3C0 10.8 0.3 13.3 1.3 14.2C1.7 14.6 2 14.8 3.5 15C5.4 15.2 7.9 15.2 9.8 15.2C10.6 15.2 11.4 15.2 12.2 15.2C14.1 15.2 16.6 15.2 18.5 15C20 14.9 20.4 14.6 20.7 14.3C21.7 13.4 21.9 10.9 22 8.4C22 7.9 22 7.3 22 6.8C21.9 4.3 21.7 1.8 20.7 0.9ZM8.8 10.9V4.4L14.3 7.6L8.8 10.9Z" fill="black"/>
</g>
<defs>
<clipPath id="clip0">
<rect width="22" height="15.2" fill="white"/>
</clipPath>
</defs>
</svg>
